<mxfile host="Electron" agent="Mozilla/5.0 (Windows NT 10.0; Win64; x64) AppleWebKit/537.36 (KHTML, like Gecko) draw.io/24.7.8 Chrome/128.0.6613.36 Electron/32.0.1 Safari/537.36" version="24.7.8">
  <diagram name="Page-1" id="0xIpm-bIJTWVG8QdG8-i">
    <mxGraphModel dx="1715" dy="2023" grid="0" gridSize="10" guides="1" tooltips="1" connect="1" arrows="1" fold="1" page="0" pageScale="1" pageWidth="850" pageHeight="1100" math="0" shadow="0">
      <root>
        <mxCell id="0" />
        <mxCell id="1" parent="0" />
        <mxCell id="sClDad9rY6wv6OA5_R2O-2" value="&lt;b&gt;expected&lt;/b&gt;" style="text;html=1;align=center;verticalAlign=middle;whiteSpace=wrap;rounded=0;fontSize=14;" parent="1" vertex="1">
          <mxGeometry x="-625" y="-832" width="60" height="30" as="geometry" />
        </mxCell>
        <mxCell id="sClDad9rY6wv6OA5_R2O-3" value="&lt;b&gt;desired&lt;/b&gt;" style="text;html=1;align=center;verticalAlign=middle;whiteSpace=wrap;rounded=0;fontSize=14;" parent="1" vertex="1">
          <mxGeometry x="-627" y="-743" width="60" height="30" as="geometry" />
        </mxCell>
        <mxCell id="sClDad9rY6wv6OA5_R2O-4" value="&lt;b&gt;std::atomic&amp;lt;&amp;gt; shared&lt;/b&gt;" style="text;html=1;align=center;verticalAlign=middle;whiteSpace=wrap;rounded=0;fontSize=14;" parent="1" vertex="1">
          <mxGeometry x="-508" y="-788" width="173" height="30" as="geometry" />
        </mxCell>
        <mxCell id="sClDad9rY6wv6OA5_R2O-5" value="" style="shape=flexArrow;endArrow=classic;html=1;rounded=0;" parent="1" source="sClDad9rY6wv6OA5_R2O-4" edge="1">
          <mxGeometry width="50" height="50" relative="1" as="geometry">
            <mxPoint x="-501" y="-796" as="sourcePoint" />
            <mxPoint x="-561" y="-816" as="targetPoint" />
          </mxGeometry>
        </mxCell>
        <mxCell id="sClDad9rY6wv6OA5_R2O-6" value="" style="shape=flexArrow;endArrow=classic;html=1;rounded=0;exitX=1;exitY=0.75;exitDx=0;exitDy=0;" parent="1" edge="1">
          <mxGeometry width="50" height="50" relative="1" as="geometry">
            <mxPoint x="-565" y="-725.5" as="sourcePoint" />
            <mxPoint x="-471" y="-760" as="targetPoint" />
          </mxGeometry>
        </mxCell>
        <mxCell id="sClDad9rY6wv6OA5_R2O-8" value="expected == shared?" style="rhombus;whiteSpace=wrap;html=1;" parent="1" vertex="1">
          <mxGeometry x="-214" y="-843" width="144" height="60" as="geometry" />
        </mxCell>
        <mxCell id="sClDad9rY6wv6OA5_R2O-9" value="expected = shared" style="rounded=0;whiteSpace=wrap;html=1;" parent="1" vertex="1">
          <mxGeometry x="-302" y="-755" width="120" height="34" as="geometry" />
        </mxCell>
        <mxCell id="sClDad9rY6wv6OA5_R2O-10" value="" style="edgeStyle=segmentEdgeStyle;endArrow=classic;html=1;curved=0;rounded=0;endSize=8;startSize=8;exitX=0;exitY=0.5;exitDx=0;exitDy=0;" parent="1" source="sClDad9rY6wv6OA5_R2O-8" target="sClDad9rY6wv6OA5_R2O-9" edge="1">
          <mxGeometry width="50" height="50" relative="1" as="geometry">
            <mxPoint x="-321" y="-826" as="sourcePoint" />
            <mxPoint x="-271" y="-876" as="targetPoint" />
          </mxGeometry>
        </mxCell>
        <mxCell id="sClDad9rY6wv6OA5_R2O-11" value="False" style="edgeLabel;html=1;align=center;verticalAlign=middle;resizable=0;points=[];" parent="sClDad9rY6wv6OA5_R2O-10" vertex="1" connectable="0">
          <mxGeometry x="0.1548" y="1" relative="1" as="geometry">
            <mxPoint as="offset" />
          </mxGeometry>
        </mxCell>
        <mxCell id="sClDad9rY6wv6OA5_R2O-12" value="" style="edgeStyle=segmentEdgeStyle;endArrow=classic;html=1;curved=0;rounded=0;endSize=8;startSize=8;exitX=1;exitY=0.5;exitDx=0;exitDy=0;entryX=0.5;entryY=0;entryDx=0;entryDy=0;" parent="1" source="sClDad9rY6wv6OA5_R2O-8" target="sClDad9rY6wv6OA5_R2O-14" edge="1">
          <mxGeometry width="50" height="50" relative="1" as="geometry">
            <mxPoint x="-4" y="-811.5" as="sourcePoint" />
            <mxPoint x="37" y="-754.5" as="targetPoint" />
          </mxGeometry>
        </mxCell>
        <mxCell id="sClDad9rY6wv6OA5_R2O-13" value="True" style="edgeLabel;html=1;align=center;verticalAlign=middle;resizable=0;points=[];" parent="sClDad9rY6wv6OA5_R2O-12" vertex="1" connectable="0">
          <mxGeometry x="0.1548" y="1" relative="1" as="geometry">
            <mxPoint as="offset" />
          </mxGeometry>
        </mxCell>
        <mxCell id="sClDad9rY6wv6OA5_R2O-14" value="shared = desired" style="rounded=0;whiteSpace=wrap;html=1;" parent="1" vertex="1">
          <mxGeometry x="-8" y="-755.25" width="120" height="34" as="geometry" />
        </mxCell>
        <mxCell id="sClDad9rY6wv6OA5_R2O-15" value="read shared" style="rounded=0;whiteSpace=wrap;html=1;" parent="1" vertex="1">
          <mxGeometry x="-202" y="-896" width="120" height="34" as="geometry" />
        </mxCell>
        <mxCell id="sClDad9rY6wv6OA5_R2O-16" value="" style="endArrow=classic;html=1;rounded=0;exitX=0.5;exitY=1;exitDx=0;exitDy=0;" parent="1" source="sClDad9rY6wv6OA5_R2O-15" target="sClDad9rY6wv6OA5_R2O-8" edge="1">
          <mxGeometry width="50" height="50" relative="1" as="geometry">
            <mxPoint x="-53" y="-887" as="sourcePoint" />
            <mxPoint x="-3" y="-937" as="targetPoint" />
          </mxGeometry>
        </mxCell>
        <mxCell id="sClDad9rY6wv6OA5_R2O-17" value="returun false" style="rounded=0;whiteSpace=wrap;html=1;" parent="1" vertex="1">
          <mxGeometry x="-304" y="-697" width="120" height="34" as="geometry" />
        </mxCell>
        <mxCell id="sClDad9rY6wv6OA5_R2O-18" value="return true" style="rounded=0;whiteSpace=wrap;html=1;" parent="1" vertex="1">
          <mxGeometry x="-8" y="-698.25" width="120" height="34" as="geometry" />
        </mxCell>
        <mxCell id="sClDad9rY6wv6OA5_R2O-19" value="" style="endArrow=classic;html=1;rounded=0;entryX=0.5;entryY=0;entryDx=0;entryDy=0;" parent="1" target="sClDad9rY6wv6OA5_R2O-17" edge="1">
          <mxGeometry width="50" height="50" relative="1" as="geometry">
            <mxPoint x="-244" y="-722" as="sourcePoint" />
            <mxPoint x="-194" y="-772" as="targetPoint" />
          </mxGeometry>
        </mxCell>
        <mxCell id="sClDad9rY6wv6OA5_R2O-20" value="" style="endArrow=classic;html=1;rounded=0;" parent="1" target="sClDad9rY6wv6OA5_R2O-18" edge="1">
          <mxGeometry width="50" height="50" relative="1" as="geometry">
            <mxPoint x="52" y="-722.25" as="sourcePoint" />
            <mxPoint x="102" y="-772.25" as="targetPoint" />
          </mxGeometry>
        </mxCell>
        <mxCell id="Fvf496wTjXWAvcR3f7MJ-1" value="spurious failure" style="rounded=0;whiteSpace=wrap;html=1;dashed=1;dashPattern=1 1;" vertex="1" parent="1">
          <mxGeometry x="-122" y="-755" width="99" height="34" as="geometry" />
        </mxCell>
        <mxCell id="Fvf496wTjXWAvcR3f7MJ-2" value="" style="endArrow=classic;html=1;rounded=0;" edge="1" parent="1" target="Fvf496wTjXWAvcR3f7MJ-1">
          <mxGeometry width="50" height="50" relative="1" as="geometry">
            <mxPoint x="-72" y="-812" as="sourcePoint" />
            <mxPoint x="-22" y="-862" as="targetPoint" />
          </mxGeometry>
        </mxCell>
        <mxCell id="Fvf496wTjXWAvcR3f7MJ-3" value="True" style="edgeLabel;html=1;align=center;verticalAlign=middle;resizable=0;points=[];" vertex="1" connectable="0" parent="Fvf496wTjXWAvcR3f7MJ-2">
          <mxGeometry x="-0.1296" y="-2" relative="1" as="geometry">
            <mxPoint as="offset" />
          </mxGeometry>
        </mxCell>
        <mxCell id="Fvf496wTjXWAvcR3f7MJ-4" value="" style="edgeStyle=segmentEdgeStyle;endArrow=classic;html=1;curved=0;rounded=0;endSize=8;startSize=8;entryX=1;entryY=0.5;entryDx=0;entryDy=0;" edge="1" parent="1" target="sClDad9rY6wv6OA5_R2O-17">
          <mxGeometry width="50" height="50" relative="1" as="geometry">
            <mxPoint x="-76" y="-720" as="sourcePoint" />
            <mxPoint x="-137" y="-681" as="targetPoint" />
            <Array as="points">
              <mxPoint x="-76" y="-681" />
              <mxPoint x="-184" y="-681" />
            </Array>
          </mxGeometry>
        </mxCell>
        <mxCell id="Fvf496wTjXWAvcR3f7MJ-6" value="&lt;font style=&quot;font-size: 18px;&quot;&gt;&lt;b&gt;compare_exchange_weak&lt;/b&gt;&lt;/font&gt;" style="text;html=1;align=center;verticalAlign=middle;whiteSpace=wrap;rounded=0;" vertex="1" parent="1">
          <mxGeometry x="-372" y="-894" width="60" height="30" as="geometry" />
        </mxCell>
      </root>
    </mxGraphModel>
  </diagram>
</mxfile>
